<svg width="50" height="52" viewBox="0 0 50 52" fill="none" xmlns="http://www.w3.org/2000/svg">
<g clip-path="url(#clip0_2_111)">
<path d="M49.2188 49.4131H45.8496C45.8496 49.2503 45.8659 49.0957 45.8984 48.9492C45.931 48.8027 45.9473 48.6807 45.9473 48.583C45.9473 47.4111 45.6299 46.3613 44.9951 45.4336C44.3604 44.5059 43.5547 43.8141 42.5781 43.3584V15.2334C42.5781 14.973 42.5049 14.7777 42.3584 14.6475C42.2119 14.5173 42.0247 14.4521 41.7969 14.4521H29.1992V1.85449C29.1992 1.62663 29.1341 1.43945 29.0039 1.29297C28.8737 1.14648 28.6784 1.07324 28.418 1.07324H5.85938C5.59896 1.07324 5.39551 1.14648 5.24902 1.29297C5.10254 1.43945 5.0293 1.62663 5.0293 1.85449V49.4131H0.878906C0.651042 49.4131 0.463867 49.4782 0.317383 49.6084C0.170898 49.7386 0.0976562 49.9339 0.0976562 50.1943C0.0976562 50.4222 0.170898 50.6094 0.317383 50.7559C0.463867 50.9023 0.651042 50.9756 0.878906 50.9756H49.3164C49.5443 50.9756 49.7314 50.9023 49.8779 50.7559C50.0244 50.6094 50.0977 50.4222 50.0977 50.1943C50.0977 49.9339 50.0081 49.7386 49.8291 49.6084C49.6501 49.4782 49.4466 49.4131 49.2188 49.4131ZM40.7715 42.7725C40.6413 42.7725 40.5029 42.7562 40.3564 42.7236C40.21 42.6911 40.0879 42.6748 39.9902 42.6748C39.6973 42.6748 39.388 42.6992 39.0625 42.748C38.737 42.7969 38.4603 42.8701 38.2324 42.9678C38.1673 42.8701 38.0697 42.7969 37.9395 42.748C37.8092 42.6992 37.679 42.6748 37.5488 42.6748C37.2884 42.6748 37.085 42.7399 36.9385 42.8701C36.792 43.0003 36.7188 43.1956 36.7188 43.4561V43.749C36.5885 43.8467 36.4502 43.9688 36.3037 44.1152C36.1572 44.2617 36.0026 44.4001 35.8398 44.5303L35.791 44.5791L35.7422 44.6279C35.3841 44.2048 34.9854 43.8385 34.5459 43.5293C34.1064 43.2201 33.6426 43.0003 33.1543 42.8701C33.1217 42.805 33.0566 42.7562 32.959 42.7236C32.8613 42.6911 32.7311 42.6748 32.5684 42.6748H32.4219H32.2754H31.9824H31.6895C31.429 42.6748 31.1605 42.6992 30.8838 42.748C30.6071 42.7969 30.3385 42.8701 30.0781 42.9678H29.9805L29.8828 43.0654C29.5898 42.805 29.2725 42.6016 28.9307 42.4551C28.5889 42.3086 28.2552 42.1702 27.9297 42.04H27.832H27.7344H27.6367H27.5391H27.4414H27.3438H27.2461H27.1484H27.0508H26.9531H26.9043H26.8555H26.7578H26.709H26.6113H26.5137H26.4648H26.3184H26.2695H26.2207C25.8301 42.1051 25.4557 42.1947 25.0977 42.3086C24.7396 42.4225 24.3978 42.5771 24.0723 42.7725V16.0146H40.6738L40.7715 42.7725ZM6.64062 2.7334H27.4414V14.4521H23.291C23.0306 14.4521 22.8271 14.5173 22.6807 14.6475C22.5342 14.7777 22.4609 14.973 22.4609 15.2334V41.1611C22.2656 40.9658 22.0459 40.7705 21.8018 40.5752C21.5576 40.3799 21.2891 40.2171 20.9961 40.0869L20.9473 40.0381L20.8984 39.9893H20.8008C20.5078 39.8265 20.1904 39.6963 19.8486 39.5986C19.5068 39.501 19.1895 39.4359 18.8965 39.4033H18.75H18.7012H18.6035H18.457H18.3105C17.6595 39.4033 17.0573 39.4928 16.5039 39.6719C15.9505 39.8509 15.4297 40.1195 14.9414 40.4775V40.1846C14.9414 39.9242 14.8763 39.7288 14.7461 39.5986C14.6159 39.4684 14.4206 39.4033 14.1602 39.4033C13.8997 39.4033 13.7044 39.4684 13.5742 39.5986C13.444 39.7288 13.3789 39.9242 13.3789 40.1846V41.8447V41.9912L13.4766 42.1865C13.2812 42.512 13.1104 42.8538 12.9639 43.2119C12.8174 43.57 12.7279 43.9769 12.6953 44.4326C12.1745 44.4977 11.6943 44.6198 11.2549 44.7988C10.8154 44.9779 10.4329 45.1813 10.1074 45.4092V45.2139C10.1074 44.986 10.0342 44.7988 9.8877 44.6523C9.74121 44.5059 9.55404 44.4326 9.32617 44.4326C9.06576 44.4326 8.8623 44.5059 8.71582 44.6523C8.56934 44.7988 8.49609 44.986 8.49609 45.2139V46.9229V47.0693V47.2158C8.20312 47.5088 7.99154 47.8424 7.86133 48.2168C7.73112 48.5911 7.61719 48.9899 7.51953 49.4131H6.64062V2.7334ZM12.9883 46.1416H13.0859H13.1836H13.2812H13.3789C13.6068 46.1416 13.7939 46.0684 13.9404 45.9219C14.0869 45.7754 14.1602 45.5719 14.1602 45.3115C14.1602 44.1396 14.5671 43.1549 15.3809 42.3574C16.1947 41.5599 17.1712 41.1611 18.3105 41.1611C19.3522 41.1611 20.2637 41.4948 21.0449 42.1621C21.8262 42.8294 22.2656 43.6839 22.3633 44.7256C22.4284 44.8232 22.4854 44.9209 22.5342 45.0186C22.583 45.1162 22.6562 45.1813 22.7539 45.2139H22.8027H22.8516H22.9004H22.9492H23.0469H23.1445C23.3073 45.2139 23.4456 45.1895 23.5596 45.1406C23.6735 45.0918 23.7793 44.986 23.877 44.8232L23.9746 44.7256C24.3001 44.335 24.6908 44.0257 25.1465 43.7979C25.6022 43.57 26.0905 43.4561 26.6113 43.4561C26.9368 43.4561 27.2217 43.4967 27.4658 43.5781C27.71 43.6595 27.9622 43.7816 28.2227 43.9443C27.7344 44.4001 27.3438 44.929 27.0508 45.5312C26.7578 46.1335 26.6113 46.7601 26.6113 47.4111V47.5576V47.7041C26.6113 47.9971 26.6357 48.2738 26.6846 48.5342C26.7334 48.7946 26.8229 49.0876 26.9531 49.4131H9.22852C9.42383 48.5016 9.86328 47.7367 10.5469 47.1182C11.2305 46.4997 12.0443 46.1742 12.9883 46.1416ZM28.9062 49.4131C28.776 49.1527 28.6621 48.8597 28.5645 48.5342C28.4668 48.2087 28.418 47.8994 28.418 47.6064C28.418 47.1507 28.5075 46.7113 28.6865 46.2881C28.8656 45.8649 29.1016 45.5068 29.3945 45.2139C29.4596 45.1813 29.5166 45.1406 29.5654 45.0918C29.6143 45.043 29.6875 44.986 29.7852 44.9209H29.9805L30.1758 44.8232C31.1198 44.335 32.0475 44.278 32.959 44.6523C33.8704 45.0267 34.5052 45.6859 34.8633 46.6299C34.8958 46.7601 34.9691 46.874 35.083 46.9717C35.1969 47.0693 35.3841 47.1182 35.6445 47.1182C35.7096 47.1182 35.7666 47.11 35.8154 47.0938C35.8643 47.0775 35.9049 47.0531 35.9375 47.0205C36.0352 47.0205 36.1328 46.9798 36.2305 46.8984C36.3281 46.8171 36.3932 46.7275 36.4258 46.6299C36.5885 46.2718 36.7839 45.9626 37.0117 45.7021C37.2396 45.4417 37.5163 45.2139 37.8418 45.0186C37.8743 45.0186 37.915 45.0023 37.9639 44.9697C38.0127 44.9372 38.0697 44.8883 38.1348 44.8232C38.4277 44.693 38.7288 44.5954 39.0381 44.5303C39.3473 44.4652 39.6647 44.4326 39.9902 44.4326C41.1947 44.4326 42.1875 44.8395 42.9688 45.6533C43.75 46.4671 44.1406 47.4437 44.1406 48.583V49.0225L44.043 49.4131H28.9062ZM27.5391 22.7529C27.2786 22.7529 27.0752 22.8262 26.9287 22.9727C26.7822 23.1191 26.709 23.3063 26.709 23.5342V25.2432C26.709 25.471 26.7822 25.6582 26.9287 25.8047C27.0752 25.9512 27.2786 26.0244 27.5391 26.0244C27.7669 26.0244 27.9541 25.9512 28.1006 25.8047C28.2471 25.6582 28.3203 25.471 28.3203 25.2432V23.5342C28.3203 23.3063 28.2471 23.1191 28.1006 22.9727C27.9541 22.8262 27.7669 22.7529 27.5391 22.7529ZM27.5391 37.6943C27.2786 37.6943 27.0752 37.7676 26.9287 37.9141C26.7822 38.0605 26.709 38.2477 26.709 38.4756V40.1846C26.709 40.445 26.7822 40.6403 26.9287 40.7705C27.0752 40.9007 27.2786 40.9658 27.5391 40.9658C27.7669 40.9658 27.9541 40.9007 28.1006 40.7705C28.2471 40.6403 28.3203 40.445 28.3203 40.1846V38.4756C28.3203 38.2803 28.2471 38.1012 28.1006 37.9385C27.9541 37.7757 27.7669 37.6943 27.5391 37.6943ZM27.5391 27.6846C27.2786 27.6846 27.0752 27.7578 26.9287 27.9043C26.7822 28.0508 26.709 28.2542 26.709 28.5146V30.1748C26.709 30.4352 26.7822 30.6305 26.9287 30.7607C27.0752 30.891 27.2786 30.9561 27.5391 30.9561C27.7669 30.9561 27.9541 30.891 28.1006 30.7607C28.2471 30.6305 28.3203 30.4352 28.3203 30.1748V28.5146C28.3203 28.3193 28.2471 28.1322 28.1006 27.9531C27.9541 27.7741 27.7669 27.6846 27.5391 27.6846ZM27.5391 32.7627C27.2786 32.7627 27.0752 32.8278 26.9287 32.958C26.7822 33.0882 26.709 33.2835 26.709 33.5439V35.2529C26.709 35.4808 26.7822 35.668 26.9287 35.8145C27.0752 35.9609 27.2786 36.0342 27.5391 36.0342C27.7669 36.0342 27.9541 35.9609 28.1006 35.8145C28.2471 35.668 28.3203 35.4808 28.3203 35.2529V33.5439C28.3203 33.2835 28.2471 33.0882 28.1006 32.958C27.9541 32.8278 27.7669 32.7627 27.5391 32.7627ZM27.5391 17.7236C27.2786 17.7236 27.0752 17.7887 26.9287 17.9189C26.7822 18.0492 26.709 18.2445 26.709 18.5049V20.165C26.709 20.4255 26.7822 20.6289 26.9287 20.7754C27.0752 20.9219 27.2786 20.9951 27.5391 20.9951C27.7669 20.9951 27.9541 20.9219 28.1006 20.7754C28.2471 20.6289 28.3203 20.4255 28.3203 20.165V18.5049C28.3203 18.3096 28.2471 18.1305 28.1006 17.9678C27.9541 17.805 27.7669 17.7236 27.5391 17.7236ZM31.8848 25.8047C31.8848 25.8047 31.9173 25.8413 31.9824 25.9146C32.0475 25.9878 32.2103 26.0244 32.4707 26.0244C32.7311 26.0244 32.9264 25.9512 33.0566 25.8047C33.1868 25.6582 33.252 25.471 33.252 25.2432V23.5342C33.252 23.3063 33.1868 23.1191 33.0566 22.9727C32.9264 22.8262 32.7311 22.7529 32.4707 22.7529C32.2103 22.7529 32.015 22.8262 31.8848 22.9727C31.7546 23.1191 31.6895 23.3063 31.6895 23.5342V25.2432C31.6895 25.471 31.7546 25.6582 31.8848 25.8047ZM31.8848 20.873C31.8848 20.873 31.9173 20.9097 31.9824 20.9829C32.0475 21.0562 32.2103 21.0928 32.4707 21.0928C32.7311 21.0928 32.9264 21.0195 33.0566 20.873C33.1868 20.7266 33.252 20.5231 33.252 20.2627V18.6025C33.252 18.3421 33.1868 18.1468 33.0566 18.0166C32.9264 17.8864 32.7311 17.8213 32.4707 17.8213C32.2103 17.8213 32.015 17.8864 31.8848 18.0166C31.7546 18.1468 31.6895 18.3421 31.6895 18.6025V20.2627C31.6895 20.5231 31.7546 20.7266 31.8848 20.873ZM31.8848 30.8584C31.8848 30.8584 31.9173 30.891 31.9824 30.9561C32.0475 31.0212 32.2103 31.0537 32.4707 31.0537C32.7311 31.0537 32.9264 30.9886 33.0566 30.8584C33.1868 30.7282 33.252 30.5329 33.252 30.2725V28.6123C33.252 28.3519 33.1868 28.1484 33.0566 28.002C32.9264 27.8555 32.7311 27.7822 32.4707 27.7822C32.2103 27.7822 32.015 27.8555 31.8848 28.002C31.7546 28.1484 31.6895 28.3519 31.6895 28.6123V30.2725C31.6895 30.5329 31.7546 30.7282 31.8848 30.8584ZM31.8848 35.8145C31.8848 35.8145 31.9173 35.8511 31.9824 35.9243C32.0475 35.9976 32.2103 36.0342 32.4707 36.0342C32.7311 36.0342 32.9264 35.9609 33.0566 35.8145C33.1868 35.668 33.252 35.4808 33.252 35.2529V33.5439C33.252 33.2835 33.1868 33.0882 33.0566 32.958C32.9264 32.8278 32.7311 32.7627 32.4707 32.7627C32.2103 32.7627 32.015 32.8278 31.8848 32.958C31.7546 33.0882 31.6895 33.2835 31.6895 33.5439V35.2529C31.6895 35.4808 31.7546 35.668 31.8848 35.8145ZM31.8848 40.8682C31.8848 40.8682 31.9173 40.9007 31.9824 40.9658C32.0475 41.0309 32.2103 41.0635 32.4707 41.0635C32.7311 41.0635 32.9264 40.9984 33.0566 40.8682C33.1868 40.738 33.252 40.5426 33.252 40.2822V38.6221C33.252 38.3617 33.1868 38.1582 33.0566 38.0117C32.9264 37.8652 32.7311 37.792 32.4707 37.792C32.2103 37.792 32.015 37.8652 31.8848 38.0117C31.7546 38.1582 31.6895 38.3617 31.6895 38.6221V40.2822C31.6895 40.5426 31.7546 40.738 31.8848 40.8682ZM37.5488 31.0537C37.7767 31.0537 37.9639 30.9886 38.1104 30.8584C38.2568 30.7282 38.3301 30.5329 38.3301 30.2725V28.6123C38.3301 28.3519 38.2568 28.1484 38.1104 28.002C37.9639 27.8555 37.7767 27.7822 37.5488 27.7822C37.2884 27.7822 37.085 27.8555 36.9385 28.002C36.792 28.1484 36.7188 28.3519 36.7188 28.6123V30.2725C36.6862 30.5329 36.7513 30.7282 36.9141 30.8584C37.0768 30.9886 37.2884 31.0537 37.5488 31.0537ZM37.5488 26.0244C37.7767 26.0244 37.9639 25.9512 38.1104 25.8047C38.2568 25.6582 38.3301 25.471 38.3301 25.2432V23.5342C38.3301 23.3063 38.2568 23.1191 38.1104 22.9727C37.9639 22.8262 37.7767 22.7529 37.5488 22.7529C37.2884 22.7529 37.085 22.8262 36.9385 22.9727C36.792 23.1191 36.7188 23.3063 36.7188 23.5342V25.2432C36.6862 25.471 36.7513 25.6582 36.9141 25.8047C37.0768 25.9512 37.2884 26.0244 37.5488 26.0244ZM37.5488 41.0635C37.7767 41.0635 37.9639 40.9984 38.1104 40.8682C38.2568 40.738 38.3301 40.5426 38.3301 40.2822V38.6221C38.3301 38.3617 38.2568 38.1582 38.1104 38.0117C37.9639 37.8652 37.7767 37.792 37.5488 37.792C37.2884 37.792 37.085 37.8652 36.9385 38.0117C36.792 38.1582 36.7188 38.3617 36.7188 38.6221V40.2822C36.6862 40.5426 36.7513 40.738 36.9141 40.8682C37.0768 40.9984 37.2884 41.0635 37.5488 41.0635ZM37.5488 36.0342C37.7767 36.0342 37.9639 35.9609 38.1104 35.8145C38.2568 35.668 38.3301 35.4808 38.3301 35.2529V33.5439C38.3301 33.2835 38.2568 33.0882 38.1104 32.958C37.9639 32.8278 37.7767 32.7627 37.5488 32.7627C37.2884 32.7627 37.085 32.8278 36.9385 32.958C36.792 33.0882 36.7188 33.2835 36.7188 33.5439V35.2529C36.6862 35.4808 36.7513 35.668 36.9141 35.8145C37.0768 35.9609 37.2884 36.0342 37.5488 36.0342ZM37.5488 21.0928C37.7767 21.0928 37.9639 21.0195 38.1104 20.873C38.2568 20.7266 38.3301 20.5231 38.3301 20.2627V18.6025C38.3301 18.3421 38.2568 18.1468 38.1104 18.0166C37.9639 17.8864 37.7767 17.8213 37.5488 17.8213C37.2884 17.8213 37.085 17.8864 36.9385 18.0166C36.792 18.1468 36.7188 18.3421 36.7188 18.6025V20.2627C36.6862 20.5231 36.7513 20.7266 36.9141 20.873C37.0768 21.0195 37.2884 21.0928 37.5488 21.0928ZM9.22852 32.7627C9.45638 32.7627 9.64355 32.6895 9.79004 32.543C9.93652 32.3965 10.0098 32.2093 10.0098 31.9814V30.2725C10.0098 30.0446 9.93652 29.8574 9.79004 29.7109C9.64355 29.5645 9.45638 29.4912 9.22852 29.4912C8.9681 29.4912 8.76465 29.5645 8.61816 29.7109C8.47168 29.8574 8.39844 30.0446 8.39844 30.2725V31.9814C8.36589 32.1768 8.43099 32.3558 8.59375 32.5186C8.75651 32.6813 8.9681 32.7627 9.22852 32.7627ZM9.22852 37.6943C9.45638 37.6943 9.64355 37.6292 9.79004 37.499C9.93652 37.3688 10.0098 37.1735 10.0098 36.9131V35.2529C10.0098 34.9925 9.93652 34.7891 9.79004 34.6426C9.64355 34.4961 9.45638 34.4229 9.22852 34.4229C8.9681 34.4229 8.76465 34.4961 8.61816 34.6426C8.47168 34.7891 8.39844 34.9925 8.39844 35.2529V36.9131C8.36589 37.1735 8.43099 37.3688 8.59375 37.499C8.75651 37.6292 8.9681 37.6943 9.22852 37.6943ZM9.22852 42.7725C9.45638 42.7725 9.64355 42.6992 9.79004 42.5527C9.93652 42.4062 10.0098 42.2028 10.0098 41.9424V40.2822C10.0098 40.0218 9.93652 39.8265 9.79004 39.6963C9.64355 39.5661 9.45638 39.501 9.22852 39.501C8.9681 39.501 8.76465 39.5661 8.61816 39.6963C8.47168 39.8265 8.39844 40.0218 8.39844 40.2822V41.9424C8.36589 42.1702 8.43099 42.3656 8.59375 42.5283C8.75651 42.6911 8.9681 42.7725 9.22852 42.7725ZM9.22852 7.71387C9.45638 7.71387 9.64355 7.64062 9.79004 7.49414C9.93652 7.34766 10.0098 7.16048 10.0098 6.93262V5.22363C10.0098 4.99577 9.93652 4.80859 9.79004 4.66211C9.64355 4.51562 9.45638 4.44238 9.22852 4.44238C8.9681 4.44238 8.76465 4.51562 8.61816 4.66211C8.47168 4.80859 8.39844 4.99577 8.39844 5.22363V6.93262C8.36589 7.16048 8.43099 7.34766 8.59375 7.49414C8.75651 7.64062 8.9681 7.71387 9.22852 7.71387ZM9.22852 12.7432C9.45638 12.7432 9.64355 12.6781 9.79004 12.5479C9.93652 12.4176 10.0098 12.2223 10.0098 11.9619V10.3018C10.0098 10.0413 9.93652 9.83789 9.79004 9.69141C9.64355 9.54492 9.45638 9.47168 9.22852 9.47168C8.9681 9.47168 8.76465 9.54492 8.61816 9.69141C8.47168 9.83789 8.39844 10.0413 8.39844 10.3018V11.9619C8.36589 12.1572 8.43099 12.3363 8.59375 12.499C8.75651 12.6618 8.9681 12.7432 9.22852 12.7432ZM9.22852 17.7236C9.45638 17.7236 9.64355 17.6504 9.79004 17.5039C9.93652 17.3574 10.0098 17.154 10.0098 16.8936V15.2334C10.0098 14.973 9.93652 14.7777 9.79004 14.6475C9.64355 14.5173 9.45638 14.4521 9.22852 14.4521C8.9681 14.4521 8.76465 14.5173 8.61816 14.6475C8.47168 14.7777 8.39844 14.973 8.39844 15.2334V16.8936C8.36589 17.154 8.43099 17.3574 8.59375 17.5039C8.75651 17.6504 8.9681 17.7236 9.22852 17.7236ZM9.22852 22.7529C9.45638 22.7529 9.64355 22.6797 9.79004 22.5332C9.93652 22.3867 10.0098 22.1995 10.0098 21.9717V20.2627C10.0098 20.0348 9.93652 19.8477 9.79004 19.7012C9.64355 19.5547 9.45638 19.4814 9.22852 19.4814C8.9681 19.4814 8.76465 19.5547 8.61816 19.7012C8.47168 19.8477 8.39844 20.0348 8.39844 20.2627V21.874C8.36589 22.1019 8.43099 22.3053 8.59375 22.4844C8.75651 22.6634 8.9681 22.7529 9.22852 22.7529ZM9.22852 27.6846C9.45638 27.6846 9.64355 27.6195 9.79004 27.4893C9.93652 27.359 10.0098 27.1637 10.0098 26.9033V25.2432C10.0098 24.9827 9.93652 24.7874 9.79004 24.6572C9.64355 24.527 9.45638 24.4619 9.22852 24.4619C8.9681 24.4619 8.76465 24.527 8.61816 24.6572C8.47168 24.7874 8.39844 24.9827 8.39844 25.2432V26.9033C8.36589 27.1637 8.43099 27.359 8.59375 27.4893C8.75651 27.6195 8.9681 27.6846 9.22852 27.6846ZM13.5742 12.499C13.5742 12.499 13.6068 12.5397 13.6719 12.6211C13.737 12.7025 13.8997 12.7432 14.1602 12.7432C14.4206 12.7432 14.6159 12.6781 14.7461 12.5479C14.8763 12.4176 14.9414 12.2223 14.9414 11.9619V10.3018C14.9414 10.0413 14.8763 9.83789 14.7461 9.69141C14.6159 9.54492 14.4206 9.47168 14.1602 9.47168C13.8997 9.47168 13.7044 9.54492 13.5742 9.69141C13.444 9.83789 13.3789 10.0413 13.3789 10.3018V11.9619C13.3789 12.1572 13.444 12.3363 13.5742 12.499ZM13.5742 7.49414C13.5742 7.49414 13.6068 7.53076 13.6719 7.604C13.737 7.67725 13.8997 7.71387 14.1602 7.71387C14.4206 7.71387 14.6159 7.64062 14.7461 7.49414C14.8763 7.34766 14.9414 7.16048 14.9414 6.93262V5.22363C14.9414 4.99577 14.8763 4.80859 14.7461 4.66211C14.6159 4.51562 14.4206 4.44238 14.1602 4.44238C13.8997 4.44238 13.7044 4.51562 13.5742 4.66211C13.444 4.80859 13.3789 4.99577 13.3789 5.22363V6.93262C13.3789 7.16048 13.444 7.34766 13.5742 7.49414ZM13.5742 22.4844C13.5742 22.4844 13.6068 22.5291 13.6719 22.6187C13.737 22.7082 13.8997 22.7529 14.1602 22.7529C14.4206 22.7529 14.6159 22.6797 14.7461 22.5332C14.8763 22.3867 14.9414 22.1995 14.9414 21.9717V20.2627C14.9414 20.0348 14.8763 19.8477 14.7461 19.7012C14.6159 19.5547 14.4206 19.4814 14.1602 19.4814C13.8997 19.4814 13.7044 19.5547 13.5742 19.7012C13.444 19.8477 13.3789 20.0348 13.3789 20.2627V21.874C13.3789 22.1019 13.444 22.3053 13.5742 22.4844ZM13.5742 17.5039C13.5742 17.5039 13.6068 17.5405 13.6719 17.6138C13.737 17.687 13.8997 17.7236 14.1602 17.7236C14.4206 17.7236 14.6159 17.6504 14.7461 17.5039C14.8763 17.3574 14.9414 17.154 14.9414 16.8936V15.2334C14.9414 14.973 14.8763 14.7777 14.7461 14.6475C14.6159 14.5173 14.4206 14.4521 14.1602 14.4521C13.8997 14.4521 13.7044 14.5173 13.5742 14.6475C13.444 14.7777 13.3789 14.973 13.3789 15.2334V16.8936C13.3789 17.154 13.444 17.3574 13.5742 17.5039ZM13.5742 27.4893C13.5742 27.4893 13.6068 27.5218 13.6719 27.5869C13.737 27.652 13.8997 27.6846 14.1602 27.6846C14.4206 27.6846 14.6159 27.6195 14.7461 27.4893C14.8763 27.359 14.9414 27.1637 14.9414 26.9033V25.2432C14.9414 24.9827 14.8763 24.7874 14.7461 24.6572C14.6159 24.527 14.4206 24.4619 14.1602 24.4619C13.8997 24.4619 13.7044 24.527 13.5742 24.6572C13.444 24.7874 13.3789 24.9827 13.3789 25.2432V26.9033C13.3789 27.1637 13.444 27.359 13.5742 27.4893ZM13.5742 32.5186C13.5742 32.5186 13.6068 32.5592 13.6719 32.6406C13.737 32.722 13.8997 32.7627 14.1602 32.7627C14.4206 32.7627 14.6159 32.6895 14.7461 32.543C14.8763 32.3965 14.9414 32.2093 14.9414 31.9814V30.2725C14.9414 30.0446 14.8763 29.8574 14.7461 29.7109C14.6159 29.5645 14.4206 29.4912 14.1602 29.4912C13.8997 29.4912 13.7044 29.5645 13.5742 29.7109C13.444 29.8574 13.3789 30.0446 13.3789 30.2725V31.9814C13.3789 32.1768 13.444 32.3558 13.5742 32.5186ZM13.5742 37.499C13.5742 37.499 13.6068 37.5316 13.6719 37.5967C13.737 37.6618 13.8997 37.6943 14.1602 37.6943C14.4206 37.6943 14.6159 37.6292 14.7461 37.499C14.8763 37.3688 14.9414 37.1735 14.9414 36.9131V35.2529C14.9414 34.9925 14.8763 34.7891 14.7461 34.6426C14.6159 34.4961 14.4206 34.4229 14.1602 34.4229C13.8997 34.4229 13.7044 34.4961 13.5742 34.6426C13.444 34.7891 13.3789 34.9925 13.3789 35.2529V36.9131C13.3789 37.1735 13.444 37.3688 13.5742 37.499ZM19.1895 17.7236C19.4499 17.7236 19.6533 17.6504 19.7998 17.5039C19.9463 17.3574 20.0195 17.154 20.0195 16.8936V15.2334C20.0195 14.973 19.9463 14.7777 19.7998 14.6475C19.6533 14.5173 19.4499 14.4521 19.1895 14.4521C18.9616 14.4521 18.7744 14.5173 18.6279 14.6475C18.4814 14.7777 18.4082 14.973 18.4082 15.2334V16.8936C18.3757 17.154 18.4408 17.3574 18.6035 17.5039C18.7663 17.6504 18.9616 17.7236 19.1895 17.7236ZM19.1895 12.7432C19.4499 12.7432 19.6533 12.6781 19.7998 12.5479C19.9463 12.4176 20.0195 12.2223 20.0195 11.9619V10.3018C20.0195 10.0413 19.9463 9.83789 19.7998 9.69141C19.6533 9.54492 19.4499 9.47168 19.1895 9.47168C18.9616 9.47168 18.7744 9.54492 18.6279 9.69141C18.4814 9.83789 18.4082 10.0413 18.4082 10.3018V11.9619C18.3757 12.1572 18.4408 12.3363 18.6035 12.499C18.7663 12.6618 18.9616 12.7432 19.1895 12.7432ZM19.1895 7.71387C19.4499 7.71387 19.6533 7.64062 19.7998 7.49414C19.9463 7.34766 20.0195 7.16048 20.0195 6.93262V5.22363C20.0195 4.99577 19.9463 4.80859 19.7998 4.66211C19.6533 4.51562 19.4499 4.44238 19.1895 4.44238C18.9616 4.44238 18.7744 4.51562 18.6279 4.66211C18.4814 4.80859 18.4082 4.99577 18.4082 5.22363V6.93262C18.3757 7.16048 18.4408 7.34766 18.6035 7.49414C18.7663 7.64062 18.9616 7.71387 19.1895 7.71387ZM19.1895 37.6943C19.4499 37.6943 19.6533 37.6292 19.7998 37.499C19.9463 37.3688 20.0195 37.1735 20.0195 36.9131V35.2529C20.0195 34.9925 19.9463 34.7891 19.7998 34.6426C19.6533 34.4961 19.4499 34.4229 19.1895 34.4229C18.9616 34.4229 18.7744 34.4961 18.6279 34.6426C18.4814 34.7891 18.4082 34.9925 18.4082 35.2529V36.9131C18.3757 37.1735 18.4408 37.3688 18.6035 37.499C18.7663 37.6292 18.9616 37.6943 19.1895 37.6943ZM19.1895 32.7627C19.4499 32.7627 19.6533 32.6895 19.7998 32.543C19.9463 32.3965 20.0195 32.2093 20.0195 31.9814V30.2725C20.0195 30.0446 19.9463 29.8574 19.7998 29.7109C19.6533 29.5645 19.4499 29.4912 19.1895 29.4912C18.9616 29.4912 18.7744 29.5645 18.6279 29.7109C18.4814 29.8574 18.4082 30.0446 18.4082 30.2725V31.9814C18.3757 32.1768 18.4408 32.3558 18.6035 32.5186C18.7663 32.6813 18.9616 32.7627 19.1895 32.7627ZM19.1895 27.6846C19.4499 27.6846 19.6533 27.6195 19.7998 27.4893C19.9463 27.359 20.0195 27.1637 20.0195 26.9033V25.2432C20.0195 24.9827 19.9463 24.7874 19.7998 24.6572C19.6533 24.527 19.4499 24.4619 19.1895 24.4619C18.9616 24.4619 18.7744 24.527 18.6279 24.6572C18.4814 24.7874 18.4082 24.9827 18.4082 25.2432V26.9033C18.3757 27.1637 18.4408 27.359 18.6035 27.4893C18.7663 27.6195 18.9616 27.6846 19.1895 27.6846ZM19.1895 22.7529C19.4499 22.7529 19.6533 22.6797 19.7998 22.5332C19.9463 22.3867 20.0195 22.1995 20.0195 21.9717V20.2627C20.0195 20.0348 19.9463 19.8477 19.7998 19.7012C19.6533 19.5547 19.4499 19.4814 19.1895 19.4814C18.9616 19.4814 18.7744 19.5547 18.6279 19.7012C18.4814 19.8477 18.4082 20.0348 18.4082 20.2627V21.874C18.3757 22.1019 18.4408 22.3053 18.6035 22.4844C18.7663 22.6634 18.9616 22.7529 19.1895 22.7529ZM24.1699 12.7432C24.3978 12.7432 24.585 12.6781 24.7314 12.5479C24.8779 12.4176 24.9512 12.2223 24.9512 11.9619V10.3018C24.9512 10.0413 24.8779 9.83789 24.7314 9.69141C24.585 9.54492 24.3978 9.47168 24.1699 9.47168C23.9095 9.47168 23.7142 9.54492 23.584 9.69141C23.4538 9.83789 23.3887 10.0413 23.3887 10.3018V11.9619C23.3887 12.1572 23.4538 12.3363 23.584 12.499C23.7142 12.6618 23.9095 12.7432 24.1699 12.7432ZM24.1699 7.71387C24.3978 7.71387 24.585 7.64062 24.7314 7.49414C24.8779 7.34766 24.9512 7.16048 24.9512 6.93262V5.22363C24.9512 4.99577 24.8779 4.80859 24.7314 4.66211C24.585 4.51562 24.3978 4.44238 24.1699 4.44238C23.9095 4.44238 23.7142 4.51562 23.584 4.66211C23.4538 4.80859 23.3887 4.99577 23.3887 5.22363V6.93262C23.3887 7.16048 23.4538 7.34766 23.584 7.49414C23.7142 7.64062 23.9095 7.71387 24.1699 7.71387Z" fill="#C73938"/>
</g>
<defs>
<clipPath id="clip0_2_111">
<rect width="50" height="52" fill="white" transform="matrix(1 0 0 -1 0 52)"/>
</clipPath>
</defs>
</svg>
