<svg width="48" height="49" viewBox="0 0 48 49" fill="none" xmlns="http://www.w3.org/2000/svg">
<g clip-path="url(#clip0_2_132)">
<path d="M26.6368 26.4899C26.9474 28.2648 27.9969 29.8387 29.516 30.8078C30.5586 31.473 31.7658 31.8175 32.9834 31.8174C33.3077 31.8174 33.6328 31.7922 33.9557 31.7428L36.4607 41.0914L34.1542 41.7094C32.9654 42.0279 32.2575 43.2542 32.576 44.4429C32.7303 45.0188 33.0996 45.5 33.6159 45.7981C33.9597 45.9966 34.3414 46.0981 34.7281 46.0981C34.922 46.0981 35.1171 46.0726 35.3095 46.021L41.2808 44.421C41.8567 44.2667 42.3379 43.8975 42.636 43.3812C42.9342 42.8649 43.0133 42.2634 42.859 41.6876C42.7047 41.1117 42.3354 40.6305 41.8191 40.3324C41.3028 40.0343 40.7015 39.9553 40.1255 40.1095L37.819 40.7275L35.314 31.3788C36.7605 30.8146 37.9692 29.7388 38.6915 28.3492C39.5225 26.7503 39.6444 24.8626 39.0259 23.1702L38.7442 22.3993C38.6109 22.0345 38.2069 21.8469 37.8424 21.9802C37.4776 22.1134 37.29 22.5171 37.4233 22.8819L37.7051 23.6528C38.1956 24.995 38.1027 26.4326 37.4437 27.7006C36.7846 28.9687 35.6614 29.8707 34.281 30.2407C32.9004 30.6103 31.4768 30.3909 30.2721 29.6222C29.0673 28.8537 28.2682 27.6552 28.0218 26.2474L27.376 22.5571C27.7046 22.4521 27.9692 22.4416 28.2791 22.4296C28.8276 22.4086 29.4492 22.3847 30.386 21.875C31.3228 21.3652 31.6806 20.8561 31.9962 20.407C32.2666 20.0221 32.4803 19.7181 33.1279 19.3657C33.7756 19.0133 34.1469 18.9991 34.6169 18.981C34.9917 18.9666 35.402 18.9502 35.9236 18.7783L36.3707 20.0018C36.5039 20.3665 36.9076 20.5541 37.2725 20.4209C37.6373 20.2876 37.8249 19.884 37.6916 19.5192L34.5354 10.8821C34.2417 10.0783 33.3966 9.63924 32.5698 9.86059L25.5726 11.7354C24.7458 11.9569 24.2337 12.7599 24.3812 13.603L26.6368 26.4899ZM25.9369 13.0936L32.9341 11.2187C33.0522 11.1871 33.1728 11.2499 33.2149 11.3647L35.4408 17.4561C35.1237 17.5536 34.8641 17.5641 34.5632 17.5757C34.0147 17.5968 33.3929 17.6206 32.4561 18.1305C31.5192 18.6403 31.1615 19.1493 30.8459 19.5985C30.5755 19.9833 30.3618 20.2874 29.7142 20.6398C29.0667 20.9922 28.6954 21.0063 28.2254 21.0244C27.9039 21.0368 27.5554 21.0503 27.1323 21.1631L25.7668 13.3605C25.7457 13.2399 25.8188 13.1252 25.9369 13.0936ZM41.4182 42.678C41.308 42.8688 41.1299 43.0054 40.9169 43.0626L34.9454 44.6626C34.7324 44.7196 34.51 44.6903 34.319 44.5801C34.128 44.4699 33.9914 44.2919 33.9343 44.0788C33.8772 43.8657 33.9065 43.6432 34.0167 43.4522C34.127 43.2613 34.3051 43.1247 34.5181 43.0675L40.4895 41.4676C40.5607 41.4485 40.6328 41.4391 40.7045 41.4391C40.8476 41.4391 40.9887 41.4766 41.116 41.5501C41.3069 41.6603 41.4435 41.8383 41.5006 42.0514C41.5577 42.2645 41.5285 42.487 41.4182 42.678Z" fill="#C73938"/>
<path d="M25.7317 8.84726C26.0012 8.84726 26.2688 8.76288 26.4975 8.59666C26.9023 8.30247 27.1012 7.81347 27.0166 7.32044L26.8021 6.06944L27.7109 5.1836C28.0692 4.83438 28.1957 4.32176 28.0411 3.84597C27.8865 3.37019 27.4828 3.02988 26.9878 2.95797L25.7318 2.77554L25.1701 1.63732C24.9486 1.18863 24.5002 0.909912 24 0.909912C23.4996 0.909912 23.0513 1.18863 22.8299 1.63732L22.2681 2.77554L21.0123 2.95797C20.5172 3.02988 20.1135 3.37019 19.9589 3.84597C19.8043 4.32176 19.9308 4.83438 20.2891 5.18369L21.1979 6.06944L20.9833 7.32044C20.8987 7.81357 21.0977 8.30266 21.5025 8.59666C21.9072 8.89076 22.4337 8.92882 22.8767 8.69604L24 8.10541L25.1234 8.69604C25.3159 8.79729 25.5243 8.84726 25.7317 8.84726ZM23.3927 6.83594L22.404 7.35569L22.5929 6.25469C22.6654 5.83122 22.5252 5.39951 22.2176 5.09969L21.4177 4.32016L22.5234 4.15947C22.9485 4.09751 23.3157 3.8306 23.5056 3.44566L24 2.44385L24.4943 3.44547C24.6843 3.83051 25.0515 4.09741 25.4768 4.15938L26.5823 4.32007L25.7823 5.09969C25.4748 5.39941 25.3345 5.83122 25.4072 6.2546L25.596 7.3556L24.6074 6.83585C24.227 6.63579 23.7728 6.63579 23.3927 6.83594Z" fill="#C73938"/>
<path d="M18.6391 8.80644C18.7761 8.99965 18.9929 9.10269 19.213 9.10269C19.3537 9.10269 19.4959 9.0605 19.6194 8.97284C19.9361 8.74812 20.0106 8.30919 19.7858 7.9925L17.5317 4.81644C17.307 4.49984 16.8681 4.42531 16.5514 4.65003C16.2347 4.87475 16.1601 5.31369 16.385 5.63037L18.6391 8.80644Z" fill="#C73938"/>
<path d="M13.0862 10.3694L17.1591 11.5399C17.2239 11.5586 17.2893 11.5675 17.3536 11.5675C17.6591 11.5675 17.9405 11.3667 18.0291 11.0583C18.1364 10.6852 17.9208 10.2956 17.5476 10.1884L13.4747 9.01787C13.1015 8.91034 12.7119 9.12615 12.6047 9.49946C12.4974 9.87268 12.713 10.2622 13.0862 10.3694Z" fill="#C73938"/>
<path d="M29.1594 9.32927C29.3158 9.32927 29.4733 9.27733 29.6038 9.17064L33.0423 6.36096C33.3431 6.11524 33.3876 5.67227 33.1419 5.37152C32.8962 5.07096 32.4533 5.02614 32.1525 5.27196L28.7141 8.08164C28.4133 8.32736 28.3688 8.77033 28.6145 9.07108C28.7535 9.24114 28.9556 9.32927 29.1594 9.32927Z" fill="#C73938"/>
<path d="M8.97387 25.9826C8.35541 27.6751 8.47728 29.5628 9.30828 31.1617C10.0304 32.5511 11.2392 33.627 12.6858 34.1913L10.1809 43.5399L7.87437 42.9219C6.68591 42.6033 5.45956 43.3114 5.141 44.5C4.98669 45.0759 5.06581 45.6774 5.36394 46.1935C5.66206 46.7099 6.14328 47.0792 6.71909 47.2334L12.6905 48.8335C12.8832 48.8851 13.0769 48.9098 13.2676 48.9098C14.2529 48.9097 15.1571 48.2513 15.424 47.2554C15.7424 46.0666 15.0345 44.8404 13.8458 44.5219L11.5392 43.9039L14.044 34.5562C14.3707 34.6068 14.6993 34.6329 15.0275 34.6329C15.7267 34.6329 16.4237 34.518 17.094 34.2893C17.4615 34.1639 17.6578 33.7643 17.5324 33.3968C17.407 33.0292 17.0073 32.8328 16.6399 32.9584C15.6974 33.28 14.6873 33.3126 13.7187 33.0533C12.3383 32.6833 11.2152 31.7813 10.5561 30.5132C9.89703 29.2452 9.80422 27.8077 10.2947 26.4654L11.5806 22.9465C11.9176 23.0199 12.1521 23.1431 12.4264 23.2878C12.9119 23.5437 13.4623 23.834 14.5284 23.8609C15.5944 23.8873 16.159 23.6258 16.6569 23.3946C17.0835 23.1966 17.4205 23.0387 18.1577 23.0588C18.8949 23.0773 19.2236 23.2507 19.6396 23.47C19.9714 23.6449 20.335 23.8359 20.8726 23.9479L19.978 29.06C19.8238 29.9406 19.4399 30.7633 18.8676 31.4395C18.6167 31.7359 18.6536 32.1796 18.95 32.4304C19.0821 32.5421 19.2434 32.5968 19.4039 32.5968C19.6035 32.5968 19.8019 32.5122 19.941 32.348C20.6744 31.4815 21.1662 30.4284 21.3632 29.3024L23.6186 16.4155C23.7661 15.5724 23.254 14.7694 22.4271 14.5479L15.43 12.673C14.6028 12.4511 13.7581 12.8906 13.4643 13.6945L12.6041 16.0488C12.4707 16.4136 12.6584 16.8173 13.0231 16.9506C13.3877 17.0834 13.7915 16.8962 13.9249 16.5314L14.7852 14.1772C14.8272 14.0623 14.9475 13.9997 15.066 14.0312L22.0632 15.906C22.1813 15.9377 22.2545 16.0524 22.2334 16.1729L21.1154 22.5611C20.7922 22.4871 20.5619 22.3663 20.2956 22.2259C19.81 21.97 19.2597 21.6798 18.1934 21.6528C17.1271 21.6257 16.5628 21.8879 16.0649 22.1191C15.6383 22.3171 15.3013 22.4751 14.5641 22.4549C13.8271 22.4364 13.4985 22.2631 13.0825 22.0437C12.7978 21.8936 12.4894 21.7311 12.0665 21.6173L12.8732 19.4097C13.0065 19.045 12.8188 18.6413 12.4542 18.508C12.0895 18.3747 11.6857 18.5623 11.5524 18.9271L8.97387 25.9826ZM13.4817 45.8802C13.6947 45.9373 13.8728 46.0739 13.983 46.265C14.0933 46.456 14.1225 46.6784 14.0655 46.8915C13.9476 47.3311 13.494 47.5927 13.0543 47.4753L7.08284 45.8753C6.86994 45.8182 6.69191 45.6816 6.58156 45.4905C6.47131 45.2995 6.44206 45.0771 6.49916 44.8641C6.59787 44.4955 6.93237 44.252 7.29687 44.252C7.36737 44.252 7.439 44.2612 7.51025 44.2802L13.4817 45.8802Z" fill="#C73938"/>
</g>
<defs>
<clipPath id="clip0_2_132">
<rect width="48" height="48" fill="white" transform="translate(0 0.909912)"/>
</clipPath>
</defs>
</svg>
