<svg width="48" height="49" viewBox="0 0 48 49" fill="none" xmlns="http://www.w3.org/2000/svg">
<g clip-path="url(#clip0_2_120)">
<path d="M46.7932 15.7817C41.9261 20.6658 35.9826 22.6233 31.5487 23.3903C31.5847 22.924 31.5581 22.4499 31.4634 21.9791C33.864 21.219 37.2755 19.7107 40.9321 16.7351C41.637 16.1614 40.7497 15.0711 40.0447 15.6446C36.535 18.5006 33.2778 19.9346 31.0011 20.6508C30.6261 19.9144 30.0807 19.2814 29.4037 18.7948C37.6286 14.3858 44.8739 7.08999 47.8964 1.97265C48.3588 1.19012 47.1483 0.475071 46.6859 1.2576C43.658 6.38404 36.2236 13.7835 27.8732 18.0069C27.8659 18.0106 27.8588 18.0144 27.8516 18.0184C26.3483 17.5282 24.5948 17.74 23.2052 18.56C22.0525 17.8793 20.6433 17.5145 19.3561 17.6072C11.3268 13.3345 4.21436 6.16837 1.31377 1.2576C0.851688 0.475165 -0.358992 1.19012 0.103273 1.97265C3.60194 7.86831 11.1454 14.6232 17.4232 18.1446C16.6052 18.551 15.8565 19.1626 15.2673 19.8983C14.6207 19.6878 13.9655 19.4351 13.3167 19.1453C12.4869 18.7744 11.9136 20.0585 12.7436 20.429C13.3254 20.6888 13.9127 20.9212 14.4963 21.1225C14.2353 21.6706 14.0587 22.2735 14.0518 22.8844C8.95445 21.6103 4.63632 19.2234 1.20654 15.7816C0.932482 15.5066 0.487369 15.5058 0.212466 15.7799C-0.0625312 16.0539 -0.063281 16.4989 0.210685 16.7739C3.96785 20.5442 8.72509 23.1099 14.3533 24.4023C14.5761 24.9247 14.9457 25.4259 15.3766 25.7925C14.1567 27.3889 13.1453 29.3548 12.3649 31.6486C11.1927 35.0946 8.15701 38.5293 4.11969 37.7917C3.6219 37.6946 3.16058 38.1956 3.30445 38.6804C5.12248 45.1666 10.3996 48.453 14.3785 48.8981C14.4779 48.9067 14.5801 48.8931 14.6743 48.8601C14.8567 48.7964 16.4441 48.1976 17.8069 46.2417C19.6365 43.6159 20.2285 39.883 19.5668 35.1464C19.2015 32.5321 19.3099 30.2254 19.8881 28.2752C21.0012 28.7527 22.3433 28.6307 23.361 27.9781C24.7007 28.6325 26.3043 28.7102 27.7108 28.2294C28.3008 30.1903 28.4137 32.5137 28.0459 35.1464C27.3841 39.883 27.9762 43.6159 29.8058 46.2417C31.2231 48.276 32.8835 48.8422 32.9535 48.8653C33.046 48.8953 33.1396 48.9062 33.2342 48.8981C33.3989 48.8839 37.3069 48.5112 40.6484 45.1065C41.285 44.4578 40.2816 43.473 39.645 44.1217C37.0328 46.7833 33.9755 47.3732 33.2657 47.4777C33.0314 47.3732 32.5044 47.0994 31.9045 46.5373C37.4229 45.0416 39.8604 41.481 40.9036 39.0827C41.5662 39.2216 42.1609 39.2631 42.6369 39.2609C42.3851 39.9511 42.0934 40.6064 41.7651 41.2181C41.3461 41.999 42.5787 42.6753 43.0039 41.8829C43.5292 40.9039 43.9681 39.8264 44.3083 38.6805C44.3724 38.0776 44.1014 37.7812 43.4952 37.7914C39.4931 38.6186 36.3947 35.0199 35.2479 31.6487C34.3002 28.8631 33.02 26.5732 31.4388 24.8341C36.116 24.0743 42.5352 22.0461 47.7891 16.774C48.4308 16.1304 47.4347 15.1378 46.7932 15.7817ZM10.1446 45.8712C7.75848 44.3814 6.03455 42.1712 4.97514 39.261C5.4539 39.2613 6.04458 39.2206 6.70892 39.0822C7.75173 41.4801 10.1884 45.0403 15.7056 46.5366C15.3118 46.9036 14.8353 47.2552 14.3433 47.4781C13.877 47.4115 12.4215 47.142 10.7318 46.2151C10.728 46.213 10.7242 46.2109 10.7204 46.2088C10.6896 46.192 10.6589 46.1748 10.628 46.1575C10.4646 46.0656 10.3028 45.9698 10.1446 45.8712ZM16.72 45.341C12.8392 44.5448 9.45898 41.962 8.06675 38.6762C11.2941 37.4034 12.907 34.4204 13.6959 32.1016C14.4529 29.8762 15.4333 27.9918 16.6136 26.4915C17.3617 26.7413 18.0708 26.893 18.6781 27.4402C17.924 29.6789 17.7544 32.334 18.1745 35.341C18.7682 39.5906 18.2652 43.0481 16.72 45.341ZM24.501 26.9269C25.0824 26.2343 25.6507 25.2862 25.8387 24.1013C25.9812 23.2037 24.5927 22.9831 24.4503 23.8808C24.2616 25.0696 23.5377 25.9675 22.9636 26.5113C22.0622 27.3654 20.6205 27.3686 19.7504 26.5187C19.1053 25.8887 18.2687 25.4504 17.2638 25.216C15.9505 24.9096 15.142 23.4569 15.5826 22.1743C16.1001 20.6684 17.5406 19.3626 19.0077 19.0694C20.6416 18.7431 22.6965 19.4793 23.7094 20.8198C24.2575 21.5448 25.3791 20.6974 24.8312 19.9722C24.7109 19.8132 24.5786 19.6602 24.4357 19.5139C26.529 18.6345 29.1768 19.5428 29.9497 21.7605C30.6679 23.8209 29.4747 26.1208 27.2901 26.8875C26.3757 27.2083 25.3894 27.2179 24.501 26.9269ZM39.5461 38.6762C38.1516 41.9643 34.7768 44.5426 30.894 45.3407C29.7162 43.5899 28.7124 40.5374 29.4384 35.3409C29.8477 32.4116 29.6968 29.8135 28.9906 27.61C29.646 27.1867 30.1952 26.6436 30.6157 26.0249C31.9675 27.5902 33.0763 29.6304 33.9169 32.1015C34.7058 34.4204 36.3188 37.4034 39.5461 38.6762Z" fill="#C73938"/>
<path d="M8.95711 18.3217C9.68594 18.8079 10.5106 17.6681 9.73749 17.1521C4.63814 13.7494 1.31615 9.08311 1.28325 9.03644C0.759876 8.29346 -0.389319 9.10298 0.133869 9.84606C0.274179 10.0453 3.6316 14.768 8.95711 18.3217Z" fill="#C73938"/>
<path d="M47.6528 9.33867C47.3368 9.11307 46.8979 9.18636 46.6722 9.50232C45.7903 10.7376 43.1896 13.091 43.1635 13.1146C42.4842 13.7279 43.4382 14.7605 44.1056 14.1581C44.217 14.0576 46.846 11.6786 47.8165 10.3192C48.0421 10.0032 47.9688 9.56418 47.6528 9.33867Z" fill="#C73938"/>
</g>
<defs>
<clipPath id="clip0_2_120">
<rect width="48" height="48" fill="white" transform="translate(-0.00012207 0.909912)"/>
</clipPath>
</defs>
</svg>
