<svg width="65" height="65" viewBox="0 0 65 65" fill="none" xmlns="http://www.w3.org/2000/svg">
<g clip-path="url(#clip0_83_20)">
<path d="M60.3064 53.0343H50.1247C43.7086 53.0343 38.4886 47.8142 38.4886 41.3981C38.4886 34.9821 43.7086 29.762 50.1247 29.762H60.3064C61.1104 29.762 61.7609 29.1114 61.7609 28.3074V23.9439C61.7609 20.8937 59.3951 18.4132 56.4059 18.1726L48.0524 3.58198C47.2783 2.23254 46.0282 1.26806 44.5325 0.867566C43.0438 0.469799 41.4871 0.678705 40.1548 1.45419L11.5184 18.1257H6.48903C3.28031 18.1257 0.670898 20.735 0.670898 23.9439V58.8524C0.670898 62.0611 3.28017 64.6705 6.48903 64.6705H55.9428C59.1515 64.6705 61.7609 62.0612 61.7609 58.8524V54.4888C61.7609 53.6848 61.1104 53.0343 60.3064 53.0343ZM49.8563 12.59L53.0256 18.1257H40.348L49.8563 12.59ZM17.3002 18.1257L41.6191 3.96829C42.2768 3.58334 43.0452 3.48107 43.7796 3.67716C44.5225 3.87597 45.1419 4.3561 45.5268 5.02795L45.5298 5.03327L23.0425 18.1257H17.3002Z" fill="#FBB03B"/>
<path d="M60.3063 32.671H50.1246C45.3121 32.671 41.3975 36.5856 41.3975 41.3981C41.3975 46.2106 45.3121 50.1252 50.1246 50.1252H60.3063C62.7125 50.1252 64.6699 48.1679 64.6699 45.7617V37.0345C64.6699 34.6283 62.7125 32.671 60.3063 32.671ZM50.1246 44.3071C48.521 44.3071 47.2156 43.0017 47.2156 41.3981C47.2156 39.7945 48.521 38.4891 50.1246 38.4891C51.7282 38.4891 53.0336 39.7945 53.0336 41.3981C53.0337 43.0017 51.7283 44.3071 50.1246 44.3071Z" fill="#FBB03B"/>
</g>
<defs>
<clipPath id="clip0_83_20">
<rect width="64" height="64" fill="white" transform="translate(0.67041 0.670532)"/>
</clipPath>
</defs>
</svg>
