<svg width="46" height="48" viewBox="0 0 46 48" fill="none" xmlns="http://www.w3.org/2000/svg">
<path d="M37.375 2.82382H34.5V1.41191C34.5 0.632924 33.8556 0 33.0625 0C32.2694 0 31.625 0.632924 31.625 1.41191V2.82382H14.375V1.41191C14.375 0.632924 13.7306 0 12.9375 0C12.1444 0 11.5 0.632924 11.5 1.41191V2.82382H8.625C3.86142 2.82382 0 6.61649 0 11.2953V39.5286C0 44.2073 3.86142 48 8.625 48H37.375C42.1386 48 46 44.2073 46 39.5286V11.2904C45.995 6.61649 42.1336 2.82382 37.375 2.82382ZM43.12 39.5237C43.1151 42.6396 40.5425 45.1664 37.37 45.1713H8.625C5.45259 45.1664 2.87996 42.6396 2.875 39.5237V16.938H43.12V39.5237ZM43.12 14.1142H2.87996V11.2904C2.88491 8.17446 5.45754 5.64763 8.62996 5.64276H11.505V7.05467C11.505 7.83365 12.1494 8.46658 12.9425 8.46658C13.7356 8.46658 14.38 7.83365 14.38 7.05467V5.64276H31.625V7.05467C31.625 7.83365 32.2694 8.46658 33.0625 8.46658C33.8556 8.46658 34.5 7.83365 34.5 7.05467V5.64276H37.375C40.5474 5.64763 43.12 8.17446 43.125 11.2904V14.1142H43.12ZM14.375 31.0571C14.375 30.2781 15.0194 29.6452 15.8125 29.6452H21.5625V23.9976C21.5625 23.2186 22.2069 22.5857 23 22.5857C23.7931 22.5857 24.4375 23.2186 24.4375 23.9976V29.6452H30.1875C30.9806 29.6452 31.625 30.2781 31.625 31.0571C31.625 31.8361 30.9806 32.469 30.1875 32.469H24.4375V38.1166C24.4375 38.8956 23.7931 39.5286 23 39.5286C22.2069 39.5286 21.5625 38.8956 21.5625 38.1166V32.469H15.8125C15.0194 32.469 14.375 31.8361 14.375 31.0571Z" fill="#C73938"/>
</svg>
