<svg width="51" height="53" viewBox="0 0 51 53" fill="none" xmlns="http://www.w3.org/2000/svg">
<g clip-path="url(#clip0_565_2116)">
<path d="M46.8296 19.4366H41.7026V12.2589C41.7026 11.087 41.2957 10.0942 40.4819 9.2804C39.6681 8.46659 38.6916 8.05969 37.5522 8.05969H5.13037C3.99105 8.05969 3.01449 8.46659 2.20068 9.2804C1.38688 10.0942 0.97998 11.087 0.97998 12.2589V30.9601C0.97998 32.132 1.38688 33.1248 2.20068 33.9386C3.01449 34.7524 3.99105 35.1593 5.13037 35.1593H10.2573V42.337C10.2573 43.4764 10.6642 44.4529 11.478 45.2667C12.2918 46.0805 13.2684 46.4874 14.4077 46.4874H46.8296C47.9689 46.4874 48.9455 46.0805 49.7593 45.2667C50.5731 44.4529 50.98 43.4764 50.98 42.337V23.587C50.98 22.4477 50.5731 21.4712 49.7593 20.6573C48.9455 19.8435 47.9689 19.4366 46.8296 19.4366ZM3.37256 12.2589C3.37256 11.7706 3.54346 11.3475 3.88525 10.9894C4.22705 10.6313 4.64209 10.4523 5.13037 10.4523H37.5522C38.0405 10.4523 38.4556 10.6313 38.7974 10.9894C39.1392 11.3475 39.3101 11.7706 39.3101 12.2589V13.9191H3.37256V12.2589ZM10.2573 23.587V32.7667H5.13037C4.64209 32.7667 4.22705 32.5877 3.88525 32.2296C3.54346 31.8715 3.37256 31.4484 3.37256 30.9601V21.8292H10.6479C10.5177 22.0896 10.4201 22.3745 10.355 22.6837C10.2899 22.993 10.2573 23.2941 10.2573 23.587ZM3.37256 19.4366V16.3116H39.3101V19.4366H14.4077H14.2612H14.1636H3.37256ZM46.8296 44.1437H14.4077C13.9194 44.1437 13.5044 43.9646 13.1626 43.6066C12.8208 43.2485 12.6499 42.8253 12.6499 42.337V23.587C12.6499 23.1313 12.8045 22.7325 13.1138 22.3907C13.423 22.049 13.8055 21.8618 14.2612 21.8292H40.5308H40.6284H40.6772H46.8296C47.3179 21.8292 47.7329 22.0001 48.0747 22.3419C48.4165 22.6837 48.5874 23.0988 48.5874 23.587V42.337C48.5874 42.8253 48.4165 43.2485 48.0747 43.6066C47.7329 43.9646 47.3179 44.1437 46.8296 44.1437ZM34.1831 27.2003C33.5321 27.2003 32.8973 27.3142 32.2788 27.5421C31.6603 27.77 31.1069 28.0792 30.6187 28.4698C30.0978 28.0792 29.5363 27.77 28.9341 27.5421C28.3319 27.3142 27.689 27.2003 27.0054 27.2003C25.4429 27.2003 24.1001 27.7618 22.9771 28.8849C21.854 30.0079 21.2925 31.367 21.2925 32.962C21.2925 34.5571 21.854 35.9161 22.9771 37.0392C24.1001 38.1622 25.4429 38.7238 27.0054 38.7238C27.689 38.7238 28.3319 38.6098 28.9341 38.382C29.5363 38.1541 30.0978 37.8448 30.6187 37.4542C31.1069 37.8448 31.6603 38.1541 32.2788 38.382C32.8973 38.6098 33.5321 38.7238 34.1831 38.7238C35.7782 38.7238 37.1372 38.1622 38.2603 37.0392C39.3833 35.9161 39.9448 34.5571 39.9448 32.962C39.9448 31.367 39.3833 30.0079 38.2603 28.8849C37.1372 27.7618 35.7782 27.2003 34.1831 27.2003ZM29.105 35.5988C28.812 35.8266 28.4865 36.0057 28.1284 36.1359C27.7703 36.2661 27.396 36.3312 27.0054 36.3312C26.0939 36.3312 25.3045 36.0057 24.6372 35.3546C23.9699 34.7036 23.6362 33.906 23.6362 32.962C23.6362 32.0506 23.9699 31.2612 24.6372 30.5939C25.3045 29.9266 26.0939 29.5929 27.0054 29.5929C27.396 29.5929 27.7703 29.658 28.1284 29.7882C28.4865 29.9184 28.812 30.0975 29.105 30.3253C28.9097 30.7159 28.755 31.131 28.6411 31.5704C28.5272 32.0099 28.4702 32.4738 28.4702 32.962C28.4702 33.4503 28.5272 33.9142 28.6411 34.3536C28.755 34.7931 28.9097 35.2081 29.105 35.5988ZM34.1831 36.3312C33.2716 36.3312 32.4904 36.0057 31.8394 35.3546C31.1883 34.7036 30.8628 33.906 30.8628 32.962C30.8628 32.0506 31.1883 31.2612 31.8394 30.5939C32.4904 29.9266 33.2716 29.5929 34.1831 29.5929C35.1271 29.5929 35.9246 29.9266 36.5757 30.5939C37.2267 31.2612 37.5522 32.0506 37.5522 32.962C37.5522 33.906 37.2267 34.7036 36.5757 35.3546C35.9246 36.0057 35.1271 36.3312 34.1831 36.3312Z" fill="#C73938"/>
</g>
<defs>
<clipPath id="clip0_565_2116">
<rect width="50" height="52" fill="white" transform="matrix(1 0 0 -1 0.97998 52.59)"/>
</clipPath>
</defs>
</svg>
