<svg width="51" height="53" viewBox="0 0 51 53" fill="none" xmlns="http://www.w3.org/2000/svg">
<g clip-path="url(#clip0_565_2125)">
<path d="M14.0795 5.42297C13.3308 4.41386 12.4681 3.64075 11.4916 3.10364C10.515 2.56653 9.47335 2.29797 8.36658 2.29797C7.25981 2.29797 6.21 2.56653 5.21716 3.10364C4.22432 3.64075 3.35356 4.41386 2.60486 5.42297C1.88871 6.36699 1.34347 7.45748 0.969116 8.69446C0.594767 9.93144 0.407593 11.2172 0.407593 12.5519C0.407593 13.8865 0.594767 15.1642 0.969116 16.3849C1.34347 17.6056 1.88871 18.6879 2.60486 19.632C3.02804 20.2179 3.4919 20.7143 3.99646 21.1212C4.50102 21.5281 5.02999 21.8618 5.58337 22.1222L3.87439 47.5128C3.84184 48.1313 3.93136 48.7335 4.14294 49.3195C4.35453 49.9054 4.67192 50.4262 5.09509 50.882C5.51827 51.3377 6.01469 51.6876 6.58435 51.9318C7.15401 52.1759 7.74809 52.298 8.36658 52.298C8.98507 52.298 9.57914 52.1759 10.1488 51.9318C10.7185 51.6876 11.2149 51.3377 11.6381 50.882C12.0612 50.4262 12.3786 49.9054 12.5902 49.3195C12.8018 48.7335 12.8913 48.1313 12.8588 47.5128L11.1498 22.1222C11.7032 21.8618 12.2321 21.5281 12.7367 21.1212C13.2413 20.7143 13.6888 20.2179 14.0795 19.632C14.8282 18.6879 15.3897 17.6056 15.764 16.3849C16.1384 15.1642 16.3256 13.8865 16.3256 12.5519C16.3256 11.2172 16.1384 9.93144 15.764 8.69446C15.3897 7.45748 14.8282 6.36699 14.0795 5.42297ZM9.97791 49.3195C9.75004 49.5148 9.49776 49.6775 9.22107 49.8077C8.94438 49.9379 8.65955 50.0031 8.36658 50.0031C8.04106 50.0031 7.73995 49.9379 7.46326 49.8077C7.18656 49.6775 6.95056 49.5148 6.75525 49.3195C6.55994 49.0916 6.40531 48.8312 6.29138 48.5382C6.17745 48.2452 6.13676 47.9523 6.16931 47.6593L7.82947 22.757H8.12244H8.36658H8.61072H8.90369L10.5638 47.6593C10.5638 47.9523 10.515 48.2452 10.4174 48.5382C10.3197 48.8312 10.1732 49.0916 9.97791 49.3195ZM8.36658 20.462C8.17126 20.462 7.96781 20.4539 7.75623 20.4376C7.54464 20.4213 7.34119 20.3807 7.14587 20.3156L7.04822 20.2667C5.81124 19.8761 4.77771 18.9565 3.94763 17.5079C3.11755 16.0594 2.70251 14.4073 2.70251 12.5519C2.70251 10.3383 3.2559 8.45845 4.36267 6.91223C5.46944 5.36601 6.80408 4.5929 8.36658 4.5929C9.92908 4.5929 11.2637 5.36601 12.3705 6.91223C13.4773 8.45845 14.0306 10.3383 14.0306 12.5519C14.0306 14.7329 13.4773 16.5965 12.3705 18.1427C11.2637 19.6889 9.92908 20.462 8.36658 20.462ZM50.2123 32.1808V3.5675C50.2448 3.4373 50.2448 3.31523 50.2123 3.20129C50.1797 3.08736 50.1309 2.96529 50.0658 2.83508C49.903 2.57467 49.667 2.40377 49.3578 2.32239C49.0485 2.24101 48.7637 2.2817 48.5033 2.44446C47.3314 3.19316 46.2735 4.03951 45.3295 4.98352C44.418 5.96008 43.6368 7.02617 42.9857 8.18176C42.3347 9.33736 41.8464 10.5662 41.5209 11.8683C41.1628 13.1704 40.9838 14.505 40.9838 15.8722V30.8624C40.9838 31.546 41.2198 32.1238 41.6918 32.5958C42.1638 33.0678 42.7253 33.3038 43.3763 33.3038V48.8312C43.3763 49.7752 43.71 50.5809 44.3773 51.2482C45.0446 51.9155 45.8503 52.2491 46.7943 52.2491C47.7383 52.2491 48.544 51.9155 49.2113 51.2482C49.8786 50.5809 50.2123 49.7752 50.2123 48.8312V32.1808ZM43.4252 31.0089C43.3926 31.0089 43.3601 31.0008 43.3275 30.9845C43.295 30.9682 43.2787 30.9275 43.2787 30.8624V15.8722C43.2787 13.8865 43.6856 12.0066 44.4994 10.2325C45.3132 8.45845 46.4525 6.95292 47.9174 5.71594V31.0089H43.4252ZM47.9174 48.8312C47.9174 49.1567 47.8116 49.4253 47.6 49.6368C47.3884 49.8484 47.1198 49.9542 46.7943 49.9542C46.4688 49.9542 46.2002 49.8484 45.9886 49.6368C45.7771 49.4253 45.6713 49.1567 45.6713 48.8312V33.3038H47.9174V48.8312ZM32.8295 2.29797C32.5039 2.29797 32.2273 2.41191 31.9994 2.63977C31.7715 2.86763 31.6576 3.12805 31.6576 3.42102V16.4581H28.7279V3.42102C28.7279 3.12805 28.6221 2.86763 28.4105 2.63977C28.1989 2.41191 27.9304 2.29797 27.6049 2.29797C27.2793 2.29797 27.0026 2.41191 26.7748 2.63977C26.5469 2.86763 26.433 3.12805 26.433 3.42102V16.4581H23.5033V3.42102C23.5033 3.12805 23.3975 2.86763 23.1859 2.63977C22.9743 2.41191 22.7058 2.29797 22.3802 2.29797C22.0547 2.29797 21.778 2.41191 21.5502 2.63977C21.3223 2.86763 21.2084 3.12805 21.2084 3.42102V20.0226C21.2084 20.9666 21.542 21.7723 22.2094 22.4396C22.8767 23.1069 23.6823 23.4406 24.6263 23.4406H24.8217L23.2103 47.6105C23.1778 48.229 23.2592 48.823 23.4545 49.3927C23.6498 49.9624 23.959 50.4588 24.3822 50.882C24.8054 51.3377 25.2937 51.6876 25.847 51.9318C26.4004 52.1759 26.9864 52.298 27.6049 52.298C28.1908 52.298 28.7686 52.1759 29.3383 51.9318C29.9079 51.6876 30.3881 51.3377 30.7787 50.882C31.2019 50.4588 31.5192 49.9624 31.7308 49.3927C31.9424 48.823 32.0157 48.229 31.9506 47.6105L30.3392 23.4406H30.5834C31.4948 23.4406 32.2842 23.1069 32.9515 22.4396C33.6189 21.7723 33.9525 20.9666 33.9525 20.0226V3.42102C33.9525 3.12805 33.8386 2.86763 33.6107 2.63977C33.3829 2.41191 33.1224 2.29797 32.8295 2.29797ZM29.1185 49.3195C28.9232 49.5473 28.6954 49.7182 28.4349 49.8322C28.1745 49.9461 27.8978 50.0031 27.6049 50.0031C27.3119 50.0031 27.0352 49.9461 26.7748 49.8322C26.5144 49.7182 26.2702 49.5473 26.0424 49.3195C25.847 49.1241 25.7006 48.8881 25.6029 48.6115C25.5052 48.3348 25.4727 48.0499 25.5052 47.757L27.1166 23.4406H28.0443L29.7045 47.757C29.7045 48.0499 29.6556 48.3348 29.558 48.6115C29.4603 48.8881 29.3138 49.1241 29.1185 49.3195ZM31.6576 20.0226C31.6576 20.3481 31.5518 20.6167 31.3402 20.8282C31.1286 21.0398 30.8763 21.1456 30.5834 21.1456H25.9935H24.6263C24.3334 21.1456 24.073 21.0398 23.8451 20.8282C23.6172 20.6167 23.5033 20.3481 23.5033 20.0226V18.7531H31.6576V20.0226Z" fill="#C73938"/>
</g>
<defs>
<clipPath id="clip0_565_2125">
<rect width="50" height="52" fill="white" transform="matrix(1 0 0 -1 0.309937 52.59)"/>
</clipPath>
</defs>
</svg>
